<svg width="296" height="296" viewBox="0 0 296 296" fill="none" xmlns="http://www.w3.org/2000/svg">
<path d="M148 296C82.3198 296 26.6344 253.215 7.28906 193.996H134C141.732 193.996 148 187.728 148 179.996C148 172.264 141.732 165.996 134 165.996L1.08594 165.996C0.370867 160.097 0 154.092 0 148C0 141.906 0.371222 135.897 1.08691 129.996L134 129.996C141.732 129.996 148 123.728 148 115.996C148 108.264 141.732 101.996 134 101.996L7.29102 101.996C26.6386 42.781 82.3226 0 148 0C229.738 0 296 66.2619 296 148C296 229.738 229.738 296 148 296Z" fill="black"/>
</svg>
